<svg xmlns="http://www.w3.org/2000/svg" width="1200" height="700" viewBox="0 0 1200 700">
  <defs>
    <linearGradient id="g" x1="0" x2="1">
      <stop offset="0" stop-color="#0b3b57"/>
      <stop offset="1" stop-color="#174a6a"/>
    </linearGradient>
  </defs>
  <rect rx="20" width="1200" height="700" fill="url(#g)"/>
  <g transform="translate(60,60)" fill="#fff" font-family="Arial, Helvetica, sans-serif">
    <text x="0" y="0" font-size="40" font-weight="700">Assessoria completa • Translados • Cartório</text>
    <g transform="translate(0,40)">
      <rect x="0" y="20" width="1080" height="220" rx="12" fill="#ffffff22" />
      <g fill="#fff" font-size="20">
        <text x="30" y="70" font-weight="700">Assessoria completa</text>
        <text x="30" y="100">• Análise de crédito personalizada</text>
        <text x="30" y="130">• Negociação de taxas e prazos</text>
        <text x="30" y="160">• Acompanhamento até liberação</text>
      </g>
      <g transform="translate(380,0)" fill="#fff" font-size="20">
        <text x="30" y="70" font-weight="700">Translados de documentos</text>
        <text x="30" y="100">• Coleta e entrega segura</text>
        <text x="30" y="130">• Redução do tempo burocrático</text>
      </g>
      <g transform="translate(760,0)" fill="#fff" font-size="20">
        <text x="30" y="70" font-weight="700">Serviços de cartório</text>
        <text x="30" y="100">• Certidões e registros</text>
        <text x="30" y="130">• Reconhecimento de firmas</text>
      </g>
    </g>

    <g transform="translate(0,320)" fill="#fff" font-size="18">
      <rect x="0" y="0" width="1080" height="180" rx="12" fill="#ffffff0f" />
      <text x="30" y="40" font-weight="700">Por que escolher a 2F?</text>
      <text x="30" y="80">• Atendimento personalizado</text>
      <text x="30" y="110">• Transparência em todas as etapas</text>
      <text x="30" y="140">• Experiência em crédito imobiliário</text>
    </g>
  </g>
  <g transform="translate(920,560)" fill="#fff">
    <rect x="0" y="0" width="220" height="90" rx="10" fill="#ffffff22" />
    <text x="110" y="40" font-size="22" font-family="Arial" text-anchor="middle" alignment-baseline="central">Quero proposta</text>
  </g>
</svg>
